<svg width="40" height="34" viewBox="0 0 40 34" fill="none" xmlns="http://www.w3.org/2000/svg">
<path d="M17.8359 33.1536L3.71875 20.0536C3.39062 19.7508 3.07812 19.4247 2.78906 19.0908H9.58594C11.3516 19.0908 12.9453 18.0347 13.625 16.4117L14.4453 14.4549L18.2969 22.9578C18.5938 23.6179 19.2422 24.045 19.9688 24.0527C20.6953 24.0605 21.3594 23.6645 21.6875 23.02L25 16.4273L25.1328 16.6913C25.875 18.1667 27.3906 19.0985 29.0469 19.0985H37.2109C36.9219 19.4324 36.6094 19.7586 36.2812 20.0614L22.1641 33.1536C21.5781 33.6972 20.8047 34 20 34C19.1953 34 18.4219 33.6972 17.8359 33.1536ZM39.3516 15.3634H29.0391C28.8047 15.3634 28.5859 15.2314 28.4766 15.0218L26.6641 11.4265C26.3438 10.7975 25.6953 10.3937 24.9844 10.3937C24.2734 10.3937 23.625 10.7897 23.3047 11.4265L20.0703 17.8561L16.0859 9.01148C15.7812 8.33591 15.0938 7.90105 14.3516 7.91658C13.6094 7.93212 12.9375 8.37473 12.6484 9.06584L10.1641 14.9907C10.0703 15.2237 9.83594 15.3712 9.58594 15.3712H1.25C1.04688 15.3712 0.859375 15.4023 0.679688 15.4566C0.234375 14.2142 0 12.8941 0 11.5507V11.1003C0 5.67243 3.94531 1.04435 9.32812 0.151352C12.8906 -0.438805 16.5156 0.718215 19.0625 3.24968L20 4.18151L20.9375 3.24968C23.4844 0.718215 27.1094 -0.438805 30.6719 0.151352C36.0547 1.04435 40 5.67243 40 11.1003V11.5507C40 12.863 39.7812 14.1521 39.3516 15.3634Z" fill="#2D8686"/>
</svg>
