<svg width="1080" height="1080" viewBox="0 0 1080 1080" fill="none" xmlns="http://www.w3.org/2000/svg">
<path d="M519.639 120.731C529.598 121.555 541.13 123.352 551.314 125.599C612.044 139.152 654.727 172.325 680.262 225.567C693.366 253.049 697.784 273.342 699.432 313.03C699.806 323.888 700.555 335.12 700.929 338.116C702.652 350.321 706.546 360.056 713.21 369.192C727.438 388.437 756.792 390.384 773.491 373.236C781.952 364.474 786.071 355.788 788.467 341.71L789.74 333.922L793.185 339.089C809.21 363.351 813.179 394.802 803.818 423.182C789.89 465.341 749.603 491.999 705.273 488.405C666.184 485.185 634.883 461.447 612.194 417.866C609.573 412.774 603.807 400.568 599.463 390.683C595.045 380.799 590.103 370.016 588.456 366.721C571.083 331.9 537.91 313.479 499.87 317.598C495.302 318.122 482.647 319.994 471.714 321.791C429.779 328.755 409.786 329.654 389.493 325.46C363.359 320.069 346.959 308.387 337 288.244C332.132 278.434 330.26 270.946 329.736 259.938C328.763 239.42 337.15 214.035 351.827 193.367C358.267 184.232 374.89 167.458 384.7 160.194C412.407 139.752 444.681 126.497 478.303 121.929C488.787 120.432 509.38 119.908 519.639 120.731Z" fill="#2563EB"/>
<path d="M311.168 246.535C310.194 251.028 309.895 268.925 310.718 275.29C313.339 294.91 322.625 311.084 339.773 326.136C348.309 333.549 350.556 336.769 353.102 344.557C355.199 350.922 364.11 363.577 372.571 372.039C376.69 376.232 384.627 382.972 390.169 387.09C400.727 394.878 404.172 398.248 406.568 402.89C407.317 404.388 409.713 411.577 411.885 418.765C414.056 425.954 416.677 433.517 417.726 435.539C421.02 441.605 425.813 444.226 433.9 444.226C439.591 444.226 441.987 445.424 442.886 448.569C443.335 450.291 444.908 451.938 448.278 454.335C450.824 456.207 454.718 459.726 456.814 462.197C460.184 466.016 462.131 467.364 470.368 471.558C475.61 474.253 481.9 476.949 484.296 477.548C494.031 480.094 506.237 478.297 517.17 472.831C530.199 466.241 540.383 456.656 550.043 441.754C552.364 438.16 554.611 435.24 555.06 435.24C555.51 435.24 557.307 436.737 559.029 438.534C574.68 454.859 581.868 484.662 575.878 508.325C572.733 520.681 564.795 533.261 555.06 541.199C552.589 543.22 550.343 545.392 550.043 545.991C549.369 547.713 551.241 549.136 558.28 552.506C571.46 558.796 585.762 561.791 602.161 561.791C635.859 561.791 665.213 547.489 683.259 522.253C686.629 517.536 684.457 517.76 709.918 520.231C738.598 523.077 748.257 524.724 763.983 529.292C810.335 542.771 842.759 573.173 857.137 616.456C862.603 632.93 864.999 650.078 864.999 672.168C865.074 712.904 856.762 745.628 835.72 787.712C818.123 822.982 799.253 849.94 775.065 874.127C756.869 892.398 740.395 905.278 719.877 917.559C670.979 946.688 606.804 963.162 556.408 959.493C513.95 956.423 478.905 944.142 439.666 918.757C411.96 900.86 394.737 894.27 363.81 889.777C337.901 886.033 321.426 880.042 303.529 867.911C287.654 857.278 264.965 834.289 247.817 811.45C236.51 796.548 223.779 777.079 218.687 766.895C214.794 759.257 215.692 753.865 221.233 751.993C225.052 750.72 228.647 752.442 231.193 756.935C232.391 758.807 237.183 766.371 241.976 773.634C262.045 804.037 280.466 825.378 295.667 835.712C303.904 841.328 315.136 846.795 325.021 850.015C337.152 853.908 346.512 855.706 370.025 858.701C398.031 862.22 403.273 863.943 429.183 877.796C454.867 891.574 468.721 897.265 489.388 902.507C507.959 907.225 520.839 908.797 541.432 908.797C560.901 908.797 571.534 907.749 589.731 903.93C625.525 896.442 657.575 881.615 685.356 859.749C695.54 851.737 714.635 832.342 722.947 821.634C743.315 795.425 757.543 767.719 764.282 741.36C768.176 726.009 769.15 718.745 769.599 701.073C770.048 683.55 769.299 673.666 767.203 668.574C765.78 665.279 762.036 660.861 759.265 659.438C754.098 656.817 747.434 658.989 744.364 664.455L742.492 667.75V689.466C742.492 709.16 742.267 711.931 740.769 719.269C734.404 749.597 722.198 775.956 702.654 802.015C695.241 811.899 686.704 821.26 685.955 820.361C685.656 820.061 684.308 815.044 682.96 809.278C677.868 787.562 669.481 766.296 661.693 755.438C654.654 745.628 642.523 735.594 631.665 730.577C608.526 719.869 585.313 720.692 560.602 733.048C557.007 734.845 553.862 736.193 553.637 736.043C553.488 735.819 553.862 731.7 554.611 726.833C556.333 714.103 555.734 695.007 553.113 682.577C548.77 662.209 542.555 651.426 532.595 647.008C527.578 644.761 519.266 645.36 513.8 648.281C509.382 650.752 507.135 653.298 504.589 658.839C502.193 664.081 502.343 672.992 505.114 685.722C506.986 694.259 507.285 697.104 507.285 708.561C507.36 718.895 507.06 722.714 506.012 726.533C501.07 744.58 489.912 752.742 470.068 752.742C458.537 752.742 449.401 750.196 423.866 739.712C412.259 734.995 402.524 731.999 395.336 731.026C384.702 729.528 384.777 729.379 400.503 722.714C411.136 718.221 415.18 715.6 420.721 709.684C425.663 704.443 428.509 699.126 429.782 692.686C430.53 689.242 430.456 687.145 429.407 680.855C428.284 674.265 428.284 672.543 429.108 668.574C430.605 661.535 430.755 657.416 429.632 655.994C429.108 655.32 426.037 653.597 422.892 652.1C412.334 647.307 407.991 641.092 403.423 624.168C400.428 613.161 396.983 605.073 392.415 598.409C390.768 596.013 389.42 593.542 389.42 593.017C389.42 592.493 390.918 589.648 392.715 586.652C404.396 567.782 420.571 552.73 439.217 543.445C455.317 535.433 470.967 531.389 495.828 528.768C520.464 526.222 531.996 522.403 540.758 514.166C545.775 509.299 549.818 502.11 551.166 495.37C552.14 490.877 551.84 481.218 550.717 480.169C550.343 479.87 546.898 482.191 543.079 485.411C534.917 492.225 527.129 496.568 518.068 499.189C498 504.955 475.61 502.784 456.44 493.049C450 489.829 447.229 487.882 434.874 477.848C430.456 474.328 423.117 469.311 418.474 466.69C404.771 458.977 397.357 450.216 394.287 438.235C390.992 425.355 383.579 416.145 372.197 410.753C368.677 409.106 362.312 406.035 357.969 403.939C337.152 394.054 321.951 378.778 310.868 356.688C298.962 333.025 295.517 306.666 300.459 277.612C302.182 267.353 305.851 255.521 309.295 249.081C310.568 246.685 311.392 245.487 311.168 246.535Z" fill="#2563EB"/>
<path d="M475.011 342.16C476.284 344.182 477.781 352.195 477.781 356.613C477.781 369.717 471.491 379.901 460.259 385.143C451.497 389.261 441.613 389.187 433.076 384.993C428.658 382.896 424.615 379.227 424.615 377.355C424.615 376.831 425.064 375.633 425.588 374.584C426.487 372.787 426.636 372.787 436.97 372.712C447.229 372.712 447.604 372.637 452.321 370.316C460.483 366.272 465.95 359.833 471.716 347.477C473.288 344.107 474.786 341.786 475.011 342.16Z" fill="#2563EB"/>
<path d="M338.873 572.274C350.405 573.996 359.541 577.516 363.959 582.009C372.421 590.395 371.747 603.2 362.312 612.636C358.118 616.829 354.898 618.626 344.415 622.745C334.68 626.489 331.235 628.436 326.967 632.629C315.884 643.712 313.638 660.486 321.276 675.612C323.897 680.854 327.866 686.021 337.001 695.98C346.137 706.014 355.273 716.797 354.898 717.097C354.749 717.247 351.529 716.722 347.859 715.899C339.098 714.027 331.909 714.476 326.069 717.097C321.276 719.343 313.938 726.233 309.669 732.672C308.097 735.069 306.449 737.016 305.925 737.016C305.476 737.016 302.555 735.293 299.485 733.197C276.871 717.621 261.969 701.671 255.005 685.496C250.362 674.863 249.089 667.899 249.014 653.896C249.014 646.108 249.389 640.043 249.988 637.422C255.454 614.807 266.687 598.483 285.183 586.202C303.005 574.296 321.126 569.653 338.873 572.274Z" fill="#2563EB"/>
<path d="M387.546 640.566C394.659 644.46 395.708 653.072 389.792 658.313C387.546 660.26 386.497 660.635 383.352 660.635C378.784 660.635 375.564 659.062 373.692 655.917C370.697 651.05 372.494 644.31 377.586 641.165C380.282 639.518 385.149 639.218 387.546 640.566Z" fill="#2563EB"/>
<path d="M241.521 710.731C242.794 711.48 249.084 717.62 255.599 724.435C275.892 745.552 296.41 763.598 307.568 769.963C310.563 771.686 315.281 773.857 318.051 774.831C328.16 778.35 343.736 779.024 343.736 776.029C343.736 775.28 340.89 771.386 337.371 767.267C327.711 756.035 326.887 754.687 326.887 750.044C326.887 743.605 331.156 739.261 337.97 738.662C341.115 738.438 342.688 738.737 345.234 740.01C348.753 741.807 368.822 757.383 386.719 772.21C411.13 792.503 418.843 797.146 436.965 802.462C458.831 808.827 474.256 810.1 491.704 807.03C508.403 803.96 522.256 796.547 543.673 779.024C566.662 760.154 577.744 754.088 592.871 751.991C607.847 749.97 623.872 755.586 634.056 766.444C643.866 776.927 649.856 789.882 657.569 817.963C660.34 827.997 660.789 830.468 660.789 836.983C660.789 843.648 660.564 844.996 658.692 849.114C656.221 854.506 651.653 859.074 646.412 861.545C643.641 862.818 641.469 863.117 635.778 863.192C629.338 863.192 628.29 862.967 625.22 861.17C617.507 856.602 612.714 848.365 607.248 830.244C605.526 824.478 603.803 819.311 603.429 818.787C602.53 817.738 598.037 817.589 596.09 818.637C595.342 819.086 592.796 822.306 590.399 825.975C574.15 850.986 555.878 865.738 533.563 871.804C525.027 874.2 507.13 874.724 496.422 872.927C480.846 870.381 466.019 864.989 440.709 852.933C409.857 838.181 400.871 835.411 371.817 831.741C354.968 829.57 345.084 828.072 337.371 826.425C322.394 823.28 309.365 817.589 299.78 810.1C286.301 799.392 258.969 766.968 237.852 736.64C228.042 722.637 226.919 719.567 229.54 714.55C232.086 709.608 237.103 707.96 241.521 710.731Z" fill="#2563EB"/>
<path d="M599.915 864.392C603.06 867.836 604.108 870.083 603.06 871.131C601.338 872.853 578.498 879.219 577.6 878.245C577.45 878.095 578.573 877.047 580.146 875.849C581.718 874.726 585.912 870.981 589.506 867.537C593.026 864.092 596.246 861.322 596.545 861.322C596.845 861.322 598.342 862.744 599.915 864.392Z" fill="#2563EB"/>
</svg>
